<?xml version="1.0" encoding="UTF-8"?>
<svg id="uuid-fdc8889a-55ea-453a-bcfe-4ed502169751" data-name="Layer 1" xmlns="http://www.w3.org/2000/svg" viewBox="0 0 256 256">
  <g>
    <path d="m125.65,219.82c-9.19,4.51-4.25,11.07,3.6,11.56,9.26-5.47,5.79-12.44-3.6-11.56Z" fill="none" stroke-width="0"/>
    <path d="m239.97,116.13c-1.98-1.41-4.56-1.66-6.76-.64-3.36,1.55-4.85,5.52-3.33,8.9,1.52,3.38,5.47,4.9,8.87,3.42,2.23-.97,3.76-3.07,4.01-5.48.25-2.42-.81-4.78-2.79-6.2Z" fill="none" stroke-width="0"/>
  </g>
  <g>
    <path d="m239.97,116.13c-1.98-1.41-4.56-1.66-6.76-.64-3.36,1.55-4.85,5.52-3.33,8.9,1.52,3.38,5.47,4.9,8.87,3.42,2.23-.97,3.76-3.07,4.01-5.48.25-2.42-.81-4.78-2.79-6.2Z" fill="none" stroke-width="0"/>
    <path d="m125.65,219.82c-9.19,4.51-4.25,11.07,3.6,11.56,9.26-5.47,5.79-12.44-3.6-11.56Z" fill="none" stroke-width="0"/>
    <path d="m17.77,115.22c-2.32.65-4.11,2.5-4.67,4.85-.56,2.34.18,4.81,1.95,6.44,1.77,1.64,4.28,2.19,6.58,1.44,3.44-1.12,5.35-4.79,4.3-8.25s-4.67-5.45-8.15-4.48Z" fill="none" stroke-width="0"/>
    <path d="m221.85,125l.07-43.37c.06-20.57,3.44-46.11-24.75-49.11-8.81-.94-19.4-.26-28.35-.24l-53.61.02-38.48-.03c-3.2,0-15.9-.16-18.3.27-28.96,4.39-25.22,27.97-25.06,50.32l.14,42.48-.04,40.46c-.03,12.56-1.97,29.04,7.49,38.64,9.3,9.43,23.36,7.98,35.51,7.9l26.64-.08c31.22.21,62.44.19,93.65-.05,29-4.48,25.29-26.86,25.14-49.61l-.05-37.59Zm-55.49,23.18c-10.4-.36-20.82-.34-31.22.08-.09,6.97-.14,13.93-.13,20.9v11.01c-3.83-.12-8.14-.03-12.01-.04.33-18.61-.36-37.4.15-56.06,5.19-.51,15.08,0,21.17-.26,7.36.14,14.71.18,22.07.14l-.03,24.24Zm16.12-45.3l-75.52.67v67.13s-.02,9.45-.02,9.45l-34.15-.05.02-76.46c10.45-.36,21.75-.19,32.26-.21-.17-12.67-.07-25.57-.09-38.26l34.76-.27c14.25.05,28.5,0,42.75-.16v38.17Z" fill="none" stroke-width="0"/>
    <path d="m230.37,106.59c.03-15.87,1.63-42.86-1.59-57.92-5.12-24-28.6-24.3-48.57-24.34h-30.26c-29.17-.02-60.01-.57-89.05,0-.98.03-1.97.09-2.95.18-10.28,1.1-18.6,3.94-25.29,12.37-3.28,4.15-5.54,9.01-6.58,14.2-.76,3.64-.95,7.37-1.03,11.07-.31,14.78.58,29.58-.03,44.36-11.6-1.2-17.88,3.43-19.82,10.5-1.1,4-1.38,6.74-.71,8.63,3.52,10.02,9.7,11.27,20.87,10.79l-.09,33c-.03,14.04-1.72,29.94,9.15,40.79,10.06,10.04,23.68,10.29,36.91,10.12,13.59.07,27.2-.14,40.67.01-2.54,28.56,36.1,23.92,31.45.02l32.68-.02c20.44.1,47.4,1.6,52.34-23.92,3.38-17.5,1.93-41.77,1.89-59.87,11.26.99,18.14.84,21.01-10.26.61-2.35.56-6.21-.07-8.55-3.11-11.7-9.3-11.89-20.92-11.16Zm-210.68,21.69c-.75.03-1.5-.09-2.21-.33-4.39-1.53-5.96-6.73-3.16-10.44.45-.6,1.01-1.11,1.65-1.5,3.94-2.43,8.73-.39,9.97,3.68s-1.63,8.42-6.25,8.59Zm109.57,103.1c-5.78,2.43-12.79-7.05-3.6-11.56,10.04-2.13,10.95,9.77,3.6,11.56Zm67.51-19.18c-31.22.24-62.44.26-93.65.05l-26.64.08c-12.16.09-26.21,1.53-35.51-7.9-9.47-9.59-7.53-26.07-7.49-38.64l.04-40.46-.14-42.48c-.16-22.34-3.89-45.93,25.06-50.32,2.4-.42,15.1-.27,18.3-.27l38.48.03,53.61-.02c8.95-.02,19.54-.7,28.35.24,28.19,3,24.81,28.54,24.75,49.11l-.07,43.37.05,37.59c.15,22.75,3.87,45.13-25.14,49.61Zm46-89.88c-.31,2.96-2.53,5.43-5.6,5.96s-5.89-1.04-7.19-3.69c-1.88-3.85.23-8.57,4.63-9.58,1.03-.24,2.12-.22,3.13.06,3.36.92,5.36,4.04,5.02,7.25Z" stroke-width="0"/>
    <path d="m139.73,64.87l-34.76.27c.03,12.69-.08,25.59.09,38.26-10.52.02-21.81-.15-32.26.21l-.02,76.46,34.15.05v-9.45s.02-67.13.02-67.13l75.52-.67v-38.17c-14.25.16-28.49.21-42.74.16Z" stroke-width="0"/>
    <path d="m123.14,124.07c-.5,18.66.18,37.45-.15,56.06,3.86,0,8.18-.08,12,.04v-11.01c0-6.97.04-13.93.13-20.9,10.4-.41,20.81-.44,31.22-.08l.03-24.24c-7.36.04-14.71,0-22.07-.14-6.09.27-15.98-.25-21.17.26Z" stroke-width="0"/>
  </g>
</svg>